<svg id="visual" viewBox="0 0 900 600" width="900" height="600" xmlns="http://www.w3.org/2000/svg" xmlns:xlink="http://www.w3.org/1999/xlink" version="1.1"><path d="M0 25L21.5 27C43 29 86 33 128.8 36C171.7 39 214.3 41 257.2 40C300 39 343 35 385.8 32C428.7 29 471.3 27 514.2 26C557 25 600 25 642.8 26C685.7 27 728.3 29 771.2 29C814 29 857 27 878.5 26L900 25L900 0L878.5 0C857 0 814 0 771.2 0C728.3 0 685.7 0 642.8 0C600 0 557 0 514.2 0C471.3 0 428.7 0 385.8 0C343 0 300 0 257.2 0C214.3 0 171.7 0 128.8 0C86 0 43 0 21.5 0L0 0Z" fill="#dbf0e9"></path><path d="M0 109L21.5 105C43 101 86 93 128.8 94C171.7 95 214.3 105 257.2 111C300 117 343 119 385.8 113C428.7 107 471.3 93 514.2 88C557 83 600 87 642.8 94C685.7 101 728.3 111 771.2 114C814 117 857 113 878.5 111L900 109L900 23L878.5 24C857 25 814 27 771.2 27C728.3 27 685.7 25 642.8 24C600 23 557 23 514.2 24C471.3 25 428.7 27 385.8 30C343 33 300 37 257.2 38C214.3 39 171.7 37 128.8 34C86 31 43 27 21.5 25L0 23Z" fill="#c8e3da"></path><path d="M0 145L21.5 143C43 141 86 137 128.8 136C171.7 135 214.3 137 257.2 142C300 147 343 155 385.8 154C428.7 153 471.3 143 514.2 142C557 141 600 149 642.8 158C685.7 167 728.3 177 771.2 177C814 177 857 167 878.5 162L900 157L900 107L878.5 109C857 111 814 115 771.2 112C728.3 109 685.7 99 642.8 92C600 85 557 81 514.2 86C471.3 91 428.7 105 385.8 111C343 117 300 115 257.2 109C214.3 103 171.7 93 128.8 92C86 91 43 99 21.5 103L0 107Z" fill="#b5d6cc"></path><path d="M0 253L21.5 249C43 245 86 237 128.8 232C171.7 227 214.3 225 257.2 229C300 233 343 243 385.8 237C428.7 231 471.3 209 514.2 200C557 191 600 195 642.8 205C685.7 215 728.3 231 771.2 239C814 247 857 247 878.5 247L900 247L900 155L878.5 160C857 165 814 175 771.2 175C728.3 175 685.7 165 642.8 156C600 147 557 139 514.2 140C471.3 141 428.7 151 385.8 152C343 153 300 145 257.2 140C214.3 135 171.7 133 128.8 134C86 135 43 139 21.5 141L0 143Z" fill="#a2cabd"></path><path d="M0 331L21.5 321C43 311 86 291 128.8 280C171.7 269 214.3 267 257.2 277C300 287 343 309 385.8 304C428.7 299 471.3 267 514.2 256C557 245 600 255 642.8 263C685.7 271 728.3 277 771.2 279C814 281 857 279 878.5 278L900 277L900 245L878.5 245C857 245 814 245 771.2 237C728.3 229 685.7 213 642.8 203C600 193 557 189 514.2 198C471.3 207 428.7 229 385.8 235C343 241 300 231 257.2 227C214.3 223 171.7 225 128.8 230C86 235 43 243 21.5 247L0 251Z" fill="#8fbdaf"></path><path d="M0 385L21.5 369C43 353 86 321 128.8 307C171.7 293 214.3 297 257.2 309C300 321 343 341 385.8 335C428.7 329 471.3 297 514.2 290C557 283 600 301 642.8 307C685.7 313 728.3 307 771.2 307C814 307 857 313 878.5 316L900 319L900 275L878.5 276C857 277 814 279 771.2 277C728.3 275 685.7 269 642.8 261C600 253 557 243 514.2 254C471.3 265 428.7 297 385.8 302C343 307 300 285 257.2 275C214.3 265 171.7 267 128.8 278C86 289 43 309 21.5 319L0 329Z" fill="#7cb0a1"></path><path d="M0 445L21.5 441C43 437 86 429 128.8 428C171.7 427 214.3 433 257.2 443C300 453 343 467 385.8 471C428.7 475 471.3 469 514.2 460C557 451 600 439 642.8 422C685.7 405 728.3 383 771.2 377C814 371 857 381 878.5 386L900 391L900 317L878.5 314C857 311 814 305 771.2 305C728.3 305 685.7 311 642.8 305C600 299 557 281 514.2 288C471.3 295 428.7 327 385.8 333C343 339 300 319 257.2 307C214.3 295 171.7 291 128.8 305C86 319 43 351 21.5 367L0 383Z" fill="#69a493"></path><path d="M0 463L21.5 463C43 463 86 463 128.8 464C171.7 465 214.3 467 257.2 476C300 485 343 501 385.8 506C428.7 511 471.3 505 514.2 496C557 487 600 475 642.8 462C685.7 449 728.3 435 771.2 432C814 429 857 437 878.5 441L900 445L900 389L878.5 384C857 379 814 369 771.2 375C728.3 381 685.7 403 642.8 420C600 437 557 449 514.2 458C471.3 467 428.7 473 385.8 469C343 465 300 451 257.2 441C214.3 431 171.7 425 128.8 426C86 427 43 435 21.5 439L0 443Z" fill="#569786"></path><path d="M0 601L21.5 601C43 601 86 601 128.8 601C171.7 601 214.3 601 257.2 601C300 601 343 601 385.8 601C428.7 601 471.3 601 514.2 601C557 601 600 601 642.8 601C685.7 601 728.3 601 771.2 601C814 601 857 601 878.5 601L900 601L900 443L878.5 439C857 435 814 427 771.2 430C728.3 433 685.7 447 642.8 460C600 473 557 485 514.2 494C471.3 503 428.7 509 385.8 504C343 499 300 483 257.2 474C214.3 465 171.7 463 128.8 462C86 461 43 461 21.5 461L0 461Z" fill="#418b79"></path></svg>