<svg id="visual" viewBox="0 0 960 540" width="960" height="540" xmlns="http://www.w3.org/2000/svg" xmlns:xlink="http://www.w3.org/1999/xlink" version="1.1"><path d="M0 104L137 104L274 87L411 87L549 82L686 66L823 87L960 104L960 0L823 0L686 0L549 0L411 0L274 0L137 0L0 0Z" fill="#fdfde2"></path><path d="M0 179L137 185L274 152L411 163L549 141L686 131L823 158L960 147L960 102L823 85L686 64L549 80L411 85L274 85L137 102L0 102Z" fill="#fdfddb"></path><path d="M0 239L137 260L274 249L411 255L549 195L686 217L823 217L960 206L960 145L823 156L686 129L549 139L411 161L274 150L137 183L0 177Z" fill="#fcfcd4"></path><path d="M0 401L137 433L274 417L411 368L549 390L686 411L823 347L960 390L960 204L823 215L686 215L549 193L411 253L274 247L137 258L0 237Z" fill="#fbfbc6"></path><path d="M0 541L137 541L274 541L411 541L549 541L686 541L823 541L960 541L960 388L823 345L686 409L549 388L411 366L274 415L137 431L0 399Z" fill="#fafab8"></path></svg>